<svg xmlns="http://www.w3.org/2000/svg" width="760" height="810" viewBox="0 0 760 810" font-family="sans-serif" font-size="11">
<rect width="760" height="810" fill="#ffffff"/>
<text x="90" y="18" fill="#1f77b4" font-weight="bold">hadron</text>
<line x1="90" y1="26" x2="90" y2="146" stroke="#888"/>
<line x1="90" y1="146" x2="740" y2="146" stroke="#888"/>
<line x1="90" y1="146.0" x2="740" y2="146.0" stroke="#eee"/>
<text x="84" y="149.0" text-anchor="end" fill="#555">137.8 MiB</text>
<line x1="90" y1="116.0" x2="740" y2="116.0" stroke="#eee"/>
<text x="84" y="119.0" text-anchor="end" fill="#555">159.4 MiB</text>
<line x1="90" y1="86.0" x2="740" y2="86.0" stroke="#eee"/>
<text x="84" y="89.0" text-anchor="end" fill="#555">180.9 MiB</text>
<line x1="90" y1="56.0" x2="740" y2="56.0" stroke="#eee"/>
<text x="84" y="59.0" text-anchor="end" fill="#555">202.5 MiB</text>
<line x1="90" y1="26.0" x2="740" y2="26.0" stroke="#eee"/>
<text x="84" y="29.0" text-anchor="end" fill="#555">224.1 MiB</text>
<polyline fill="none" stroke="#1f77b4" stroke-width="2" points="90.0,45.8 101.8,45.8 113.6,45.8 125.5,45.8 137.3,45.8 149.1,45.7 160.9,45.7 172.7,45.7 184.5,45.7 196.4,45.7 208.2,45.7 220.0,45.7 231.8,45.7 243.6,45.7 255.5,45.7 267.3,45.7 279.1,45.7 290.9,45.2 302.7,45.2 314.5,45.2 326.4,42.8 338.2,42.8 350.0,42.7 361.8,42.8 373.6,42.7 385.5,42.7 397.3,42.7 409.1,42.8 420.9,42.8 432.7,42.7 444.5,42.7 456.4,42.7 468.2,42.7 480.0,42.7 491.8,42.7 503.6,42.7 515.5,42.7 527.3,42.7 539.1,42.7 550.9,42.7 562.7,42.2 574.5,42.2 586.4,42.2 598.2,42.1 610.0,42.1 621.8,41.1 633.6,41.1 645.5,41.1 657.3,41.1 669.1,41.1 680.9,41.1 692.7,39.8 704.5,132.1 716.4,132.2 728.2,131.9 740.0,131.9 "/>
<text x="90" y="222" fill="#ff7f0e" font-weight="bold">hadron-cloud</text>
<line x1="90" y1="230" x2="90" y2="350" stroke="#888"/>
<line x1="90" y1="350" x2="740" y2="350" stroke="#888"/>
<line x1="90" y1="350.0" x2="740" y2="350.0" stroke="#eee"/>
<text x="84" y="353.0" text-anchor="end" fill="#555">36.1 MiB</text>
<line x1="90" y1="320.0" x2="740" y2="320.0" stroke="#eee"/>
<text x="84" y="323.0" text-anchor="end" fill="#555">57.3 MiB</text>
<line x1="90" y1="290.0" x2="740" y2="290.0" stroke="#eee"/>
<text x="84" y="293.0" text-anchor="end" fill="#555">78.6 MiB</text>
<line x1="90" y1="260.0" x2="740" y2="260.0" stroke="#eee"/>
<text x="84" y="263.0" text-anchor="end" fill="#555">99.8 MiB</text>
<line x1="90" y1="230.0" x2="740" y2="230.0" stroke="#eee"/>
<text x="84" y="233.0" text-anchor="end" fill="#555">121.0 MiB</text>
<polyline fill="none" stroke="#ff7f0e" stroke-width="2" points="90.0,249.5 101.8,249.5 113.6,249.5 125.5,249.5 137.3,249.5 149.1,249.5 160.9,249.5 172.7,249.5 184.5,249.5 196.4,249.4 208.2,249.4 220.0,248.1 231.8,248.1 243.6,248.1 255.5,248.1 267.3,248.1 279.1,248.1 290.9,247.6 302.7,247.6 314.5,247.6 326.4,245.9 338.2,245.9 350.0,245.9 361.8,245.9 373.6,245.9 385.5,245.9 397.3,245.9 409.1,246.0 420.9,246.0 432.7,245.9 444.5,245.9 456.4,245.9 468.2,245.9 480.0,245.9 491.8,245.9 503.6,245.9 515.5,245.9 527.3,245.9 539.1,245.9 550.9,245.9 562.7,245.3 574.5,245.3 586.4,245.3 598.2,245.3 610.0,245.3 621.8,244.3 633.6,244.3 645.5,244.3 657.3,244.3 669.1,244.3 680.9,244.3 692.7,243.8 704.5,336.2 716.4,336.2 728.2,335.9 740.0,335.9 "/>
<text x="90" y="426" fill="#2ca02c" font-weight="bold">hadron-trusted</text>
<line x1="90" y1="434" x2="90" y2="554" stroke="#888"/>
<line x1="90" y1="554" x2="740" y2="554" stroke="#888"/>
<line x1="90" y1="554.0" x2="740" y2="554.0" stroke="#eee"/>
<text x="84" y="557.0" text-anchor="end" fill="#555">130.7 MiB</text>
<line x1="90" y1="524.0" x2="740" y2="524.0" stroke="#eee"/>
<text x="84" y="527.0" text-anchor="end" fill="#555">146.6 MiB</text>
<line x1="90" y1="494.0" x2="740" y2="494.0" stroke="#eee"/>
<text x="84" y="497.0" text-anchor="end" fill="#555">162.6 MiB</text>
<line x1="90" y1="464.0" x2="740" y2="464.0" stroke="#eee"/>
<text x="84" y="467.0" text-anchor="end" fill="#555">178.5 MiB</text>
<line x1="90" y1="434.0" x2="740" y2="434.0" stroke="#eee"/>
<text x="84" y="437.0" text-anchor="end" fill="#555">194.5 MiB</text>
<polyline fill="none" stroke="#2ca02c" stroke-width="2" points="90.0,455.9 101.8,455.8 113.6,455.9 125.5,455.9 137.3,455.8 149.1,455.8 160.9,455.8 172.7,455.8 184.5,455.8 196.4,455.7 208.2,455.7 220.0,455.7 231.8,455.7 243.6,455.7 255.5,455.7 267.3,455.7 279.1,455.7 290.9,455.1 302.7,455.0 314.5,455.0 326.4,451.8 338.2,451.8 350.0,451.7 361.8,451.7 373.6,451.7 385.5,451.7 397.3,451.7 409.1,451.8 420.9,451.8 432.7,451.8 444.5,451.8 456.4,451.8 468.2,451.8 480.0,451.8 491.8,451.8 503.6,451.8 515.5,451.8 527.3,451.8 539.1,451.7 550.9,451.7 562.7,451.0 574.5,451.0 586.4,451.0 598.2,450.9 610.0,450.9 621.8,449.5 633.6,449.5 645.5,449.5 657.3,449.5 669.1,449.5 680.9,449.5 692.7,447.8 704.5,540.2 716.4,540.2 728.2,539.8 740.0,539.8 "/>
<text x="90" y="630" fill="#d62728" font-weight="bold">hadron-cloud-trusted</text>
<line x1="90" y1="638" x2="90" y2="758" stroke="#888"/>
<line x1="90" y1="758" x2="740" y2="758" stroke="#888"/>
<line x1="90" y1="758.0" x2="740" y2="758.0" stroke="#eee"/>
<text x="84" y="761.0" text-anchor="end" fill="#555">28.9 MiB</text>
<line x1="90" y1="728.0" x2="740" y2="728.0" stroke="#eee"/>
<text x="84" y="731.0" text-anchor="end" fill="#555">44.6 MiB</text>
<line x1="90" y1="698.0" x2="740" y2="698.0" stroke="#eee"/>
<text x="84" y="701.0" text-anchor="end" fill="#555">60.2 MiB</text>
<line x1="90" y1="668.0" x2="740" y2="668.0" stroke="#eee"/>
<text x="84" y="671.0" text-anchor="end" fill="#555">75.8 MiB</text>
<line x1="90" y1="638.0" x2="740" y2="638.0" stroke="#eee"/>
<text x="84" y="641.0" text-anchor="end" fill="#555">91.4 MiB</text>
<polyline fill="none" stroke="#d62728" stroke-width="2" points="90.0,659.6 101.8,659.6 113.6,659.6 125.5,659.6 137.3,659.5 149.1,659.5 160.9,659.5 172.7,659.5 184.5,659.5 196.4,659.4 208.2,659.4 220.0,657.6 231.8,657.6 243.6,657.6 255.5,657.6 267.3,657.6 279.1,657.6 290.9,656.9 302.7,656.9 314.5,656.9 326.4,654.6 338.2,654.6 350.0,654.6 361.8,654.6 373.6,654.6 385.5,654.6 397.3,654.6 409.1,654.7 420.9,654.7 432.7,654.7 444.5,654.7 456.4,654.7 468.2,654.7 480.0,654.7 491.8,654.7 503.6,654.7 515.5,654.7 527.3,654.7 539.1,654.7 550.9,654.7 562.7,653.9 574.5,653.9 586.4,653.9 598.2,653.8 610.0,653.8 621.8,652.4 633.6,652.4 645.5,652.4 657.3,652.4 669.1,652.4 680.9,652.4 692.7,651.8 704.5,744.2 716.4,744.1 728.2,743.8 740.0,743.8 "/>
<text x="415" y="802" text-anchor="middle" fill="#555">merges over time (oldest → newest)</text>
</svg>
