<svg xmlns="http://www.w3.org/2000/svg" width="760" height="810" viewBox="0 0 760 810" font-family="sans-serif" font-size="11">
<rect width="760" height="810" fill="#ffffff"/>
<text x="90" y="18" fill="#1f77b4" font-weight="bold">hadron</text>
<line x1="90" y1="26" x2="90" y2="146" stroke="#888"/>
<line x1="90" y1="146" x2="740" y2="146" stroke="#888"/>
<line x1="90" y1="146.0" x2="740" y2="146.0" stroke="#eee"/>
<text x="84" y="149.0" text-anchor="end" fill="#555">137.8 MiB</text>
<line x1="90" y1="116.0" x2="740" y2="116.0" stroke="#eee"/>
<text x="84" y="119.0" text-anchor="end" fill="#555">159.4 MiB</text>
<line x1="90" y1="86.0" x2="740" y2="86.0" stroke="#eee"/>
<text x="84" y="89.0" text-anchor="end" fill="#555">180.9 MiB</text>
<line x1="90" y1="56.0" x2="740" y2="56.0" stroke="#eee"/>
<text x="84" y="59.0" text-anchor="end" fill="#555">202.5 MiB</text>
<line x1="90" y1="26.0" x2="740" y2="26.0" stroke="#eee"/>
<text x="84" y="29.0" text-anchor="end" fill="#555">224.1 MiB</text>
<polyline fill="none" stroke="#1f77b4" stroke-width="2" points="90.0,45.8 101.6,45.8 113.2,45.8 124.8,45.8 136.4,45.8 148.0,45.7 159.6,45.7 171.2,45.7 182.9,45.7 194.5,45.7 206.1,45.7 217.7,45.7 229.3,45.7 240.9,45.7 252.5,45.7 264.1,45.7 275.7,45.7 287.3,45.2 298.9,45.2 310.5,45.2 322.1,42.8 333.8,42.8 345.4,42.7 357.0,42.8 368.6,42.7 380.2,42.7 391.8,42.7 403.4,42.8 415.0,42.8 426.6,42.7 438.2,42.7 449.8,42.7 461.4,42.7 473.0,42.7 484.6,42.7 496.2,42.7 507.9,42.7 519.5,42.7 531.1,42.7 542.7,42.7 554.3,42.2 565.9,42.2 577.5,42.2 589.1,42.1 600.7,42.1 612.3,41.1 623.9,41.1 635.5,41.1 647.1,41.1 658.8,41.1 670.4,41.1 682.0,39.8 693.6,132.1 705.2,132.2 716.8,131.9 728.4,131.9 740.0,131.8 "/>
<text x="90" y="222" fill="#ff7f0e" font-weight="bold">hadron-cloud</text>
<line x1="90" y1="230" x2="90" y2="350" stroke="#888"/>
<line x1="90" y1="350" x2="740" y2="350" stroke="#888"/>
<line x1="90" y1="350.0" x2="740" y2="350.0" stroke="#eee"/>
<text x="84" y="353.0" text-anchor="end" fill="#555">36.1 MiB</text>
<line x1="90" y1="320.0" x2="740" y2="320.0" stroke="#eee"/>
<text x="84" y="323.0" text-anchor="end" fill="#555">57.3 MiB</text>
<line x1="90" y1="290.0" x2="740" y2="290.0" stroke="#eee"/>
<text x="84" y="293.0" text-anchor="end" fill="#555">78.6 MiB</text>
<line x1="90" y1="260.0" x2="740" y2="260.0" stroke="#eee"/>
<text x="84" y="263.0" text-anchor="end" fill="#555">99.8 MiB</text>
<line x1="90" y1="230.0" x2="740" y2="230.0" stroke="#eee"/>
<text x="84" y="233.0" text-anchor="end" fill="#555">121.0 MiB</text>
<polyline fill="none" stroke="#ff7f0e" stroke-width="2" points="90.0,249.5 101.6,249.5 113.2,249.5 124.8,249.5 136.4,249.5 148.0,249.5 159.6,249.5 171.2,249.5 182.9,249.5 194.5,249.4 206.1,249.4 217.7,248.1 229.3,248.1 240.9,248.1 252.5,248.1 264.1,248.1 275.7,248.1 287.3,247.6 298.9,247.6 310.5,247.6 322.1,245.9 333.8,245.9 345.4,245.9 357.0,245.9 368.6,245.9 380.2,245.9 391.8,245.9 403.4,246.0 415.0,246.0 426.6,245.9 438.2,245.9 449.8,245.9 461.4,245.9 473.0,245.9 484.6,245.9 496.2,245.9 507.9,245.9 519.5,245.9 531.1,245.9 542.7,245.9 554.3,245.3 565.9,245.3 577.5,245.3 589.1,245.3 600.7,245.3 612.3,244.3 623.9,244.3 635.5,244.3 647.1,244.3 658.8,244.3 670.4,244.3 682.0,243.8 693.6,336.2 705.2,336.2 716.8,335.9 728.4,335.9 740.0,335.9 "/>
<text x="90" y="426" fill="#2ca02c" font-weight="bold">hadron-trusted</text>
<line x1="90" y1="434" x2="90" y2="554" stroke="#888"/>
<line x1="90" y1="554" x2="740" y2="554" stroke="#888"/>
<line x1="90" y1="554.0" x2="740" y2="554.0" stroke="#eee"/>
<text x="84" y="557.0" text-anchor="end" fill="#555">130.7 MiB</text>
<line x1="90" y1="524.0" x2="740" y2="524.0" stroke="#eee"/>
<text x="84" y="527.0" text-anchor="end" fill="#555">146.6 MiB</text>
<line x1="90" y1="494.0" x2="740" y2="494.0" stroke="#eee"/>
<text x="84" y="497.0" text-anchor="end" fill="#555">162.6 MiB</text>
<line x1="90" y1="464.0" x2="740" y2="464.0" stroke="#eee"/>
<text x="84" y="467.0" text-anchor="end" fill="#555">178.5 MiB</text>
<line x1="90" y1="434.0" x2="740" y2="434.0" stroke="#eee"/>
<text x="84" y="437.0" text-anchor="end" fill="#555">194.5 MiB</text>
<polyline fill="none" stroke="#2ca02c" stroke-width="2" points="90.0,455.9 101.6,455.8 113.2,455.9 124.8,455.9 136.4,455.8 148.0,455.8 159.6,455.8 171.2,455.8 182.9,455.8 194.5,455.7 206.1,455.7 217.7,455.7 229.3,455.7 240.9,455.7 252.5,455.7 264.1,455.7 275.7,455.7 287.3,455.1 298.9,455.0 310.5,455.0 322.1,451.8 333.8,451.8 345.4,451.7 357.0,451.7 368.6,451.7 380.2,451.7 391.8,451.7 403.4,451.8 415.0,451.8 426.6,451.8 438.2,451.8 449.8,451.8 461.4,451.8 473.0,451.8 484.6,451.8 496.2,451.8 507.9,451.8 519.5,451.8 531.1,451.7 542.7,451.7 554.3,451.0 565.9,451.0 577.5,451.0 589.1,450.9 600.7,450.9 612.3,449.5 623.9,449.5 635.5,449.5 647.1,449.5 658.8,449.5 670.4,449.5 682.0,447.8 693.6,540.2 705.2,540.2 716.8,539.8 728.4,539.8 740.0,539.7 "/>
<text x="90" y="630" fill="#d62728" font-weight="bold">hadron-cloud-trusted</text>
<line x1="90" y1="638" x2="90" y2="758" stroke="#888"/>
<line x1="90" y1="758" x2="740" y2="758" stroke="#888"/>
<line x1="90" y1="758.0" x2="740" y2="758.0" stroke="#eee"/>
<text x="84" y="761.0" text-anchor="end" fill="#555">28.9 MiB</text>
<line x1="90" y1="728.0" x2="740" y2="728.0" stroke="#eee"/>
<text x="84" y="731.0" text-anchor="end" fill="#555">44.6 MiB</text>
<line x1="90" y1="698.0" x2="740" y2="698.0" stroke="#eee"/>
<text x="84" y="701.0" text-anchor="end" fill="#555">60.2 MiB</text>
<line x1="90" y1="668.0" x2="740" y2="668.0" stroke="#eee"/>
<text x="84" y="671.0" text-anchor="end" fill="#555">75.8 MiB</text>
<line x1="90" y1="638.0" x2="740" y2="638.0" stroke="#eee"/>
<text x="84" y="641.0" text-anchor="end" fill="#555">91.4 MiB</text>
<polyline fill="none" stroke="#d62728" stroke-width="2" points="90.0,659.6 101.6,659.6 113.2,659.6 124.8,659.6 136.4,659.5 148.0,659.5 159.6,659.5 171.2,659.5 182.9,659.5 194.5,659.4 206.1,659.4 217.7,657.6 229.3,657.6 240.9,657.6 252.5,657.6 264.1,657.6 275.7,657.6 287.3,656.9 298.9,656.9 310.5,656.9 322.1,654.6 333.8,654.6 345.4,654.6 357.0,654.6 368.6,654.6 380.2,654.6 391.8,654.6 403.4,654.7 415.0,654.7 426.6,654.7 438.2,654.7 449.8,654.7 461.4,654.7 473.0,654.7 484.6,654.7 496.2,654.7 507.9,654.7 519.5,654.7 531.1,654.7 542.7,654.7 554.3,653.9 565.9,653.9 577.5,653.9 589.1,653.8 600.7,653.8 612.3,652.4 623.9,652.4 635.5,652.4 647.1,652.4 658.8,652.4 670.4,652.4 682.0,651.8 693.6,744.2 705.2,744.1 716.8,743.8 728.4,743.8 740.0,743.8 "/>
<text x="415" y="802" text-anchor="middle" fill="#555">merges over time (oldest → newest)</text>
</svg>
