<svg xmlns="http://www.w3.org/2000/svg" width="760" height="810" viewBox="0 0 760 810" font-family="sans-serif" font-size="11">
<rect width="760" height="810" fill="#ffffff"/>
<text x="90" y="18" fill="#1f77b4" font-weight="bold">hadron</text>
<line x1="90" y1="26" x2="90" y2="146" stroke="#888"/>
<line x1="90" y1="146" x2="740" y2="146" stroke="#888"/>
<line x1="90" y1="146.0" x2="740" y2="146.0" stroke="#eee"/>
<text x="84" y="149.0" text-anchor="end" fill="#555">209.5 MiB</text>
<line x1="90" y1="116.0" x2="740" y2="116.0" stroke="#eee"/>
<text x="84" y="119.0" text-anchor="end" fill="#555">210.2 MiB</text>
<line x1="90" y1="86.0" x2="740" y2="86.0" stroke="#eee"/>
<text x="84" y="89.0" text-anchor="end" fill="#555">211.0 MiB</text>
<line x1="90" y1="56.0" x2="740" y2="56.0" stroke="#eee"/>
<text x="84" y="59.0" text-anchor="end" fill="#555">211.7 MiB</text>
<line x1="90" y1="26.0" x2="740" y2="26.0" stroke="#eee"/>
<text x="84" y="29.0" text-anchor="end" fill="#555">212.4 MiB</text>
<polyline fill="none" stroke="#1f77b4" stroke-width="2" points="90.0,132.2 108.1,132.2 126.1,132.2 144.2,132.2 162.2,131.7 180.3,130.8 198.3,130.1 216.4,130.1 234.4,130.2 252.5,129.7 270.6,129.7 288.6,129.5 306.7,129.5 324.7,129.5 342.8,129.5 360.8,129.5 378.9,129.9 396.9,115.6 415.0,113.6 433.1,113.8 451.1,41.8 469.2,41.7 487.2,40.9 505.3,41.0 523.3,39.8 541.4,39.8 559.4,40.0 577.5,41.6 595.6,41.6 613.6,40.8 631.7,40.8 649.7,40.8 667.8,40.7 685.8,40.7 703.9,40.7 721.9,40.6 740.0,40.6 "/>
<text x="90" y="222" fill="#ff7f0e" font-weight="bold">hadron-cloud</text>
<line x1="90" y1="230" x2="90" y2="350" stroke="#888"/>
<line x1="90" y1="350" x2="740" y2="350" stroke="#888"/>
<line x1="90" y1="350.0" x2="740" y2="350.0" stroke="#eee"/>
<text x="84" y="353.0" text-anchor="end" fill="#555">106.8 MiB</text>
<line x1="90" y1="320.0" x2="740" y2="320.0" stroke="#eee"/>
<text x="84" y="323.0" text-anchor="end" fill="#555">107.6 MiB</text>
<line x1="90" y1="290.0" x2="740" y2="290.0" stroke="#eee"/>
<text x="84" y="293.0" text-anchor="end" fill="#555">108.5 MiB</text>
<line x1="90" y1="260.0" x2="740" y2="260.0" stroke="#eee"/>
<text x="84" y="263.0" text-anchor="end" fill="#555">109.3 MiB</text>
<line x1="90" y1="230.0" x2="740" y2="230.0" stroke="#eee"/>
<text x="84" y="233.0" text-anchor="end" fill="#555">110.1 MiB</text>
<polyline fill="none" stroke="#ff7f0e" stroke-width="2" points="90.0,336.1 108.1,336.2 126.1,336.2 144.2,336.2 162.2,335.7 180.3,334.9 198.3,334.2 216.4,334.2 234.4,334.2 252.5,333.5 270.6,333.5 288.6,299.4 306.7,299.4 324.7,299.4 342.8,299.4 360.8,299.4 378.9,299.6 396.9,287.4 415.0,285.9 433.1,285.9 451.1,244.8 469.2,244.8 487.2,244.1 505.3,244.1 523.3,243.8 541.4,243.8 559.4,243.9 577.5,245.3 595.6,245.3 613.6,245.2 631.7,245.2 649.7,245.2 667.8,245.1 685.8,245.1 703.9,245.1 721.9,245.1 740.0,245.1 "/>
<text x="90" y="426" fill="#2ca02c" font-weight="bold">hadron-trusted</text>
<line x1="90" y1="434" x2="90" y2="554" stroke="#888"/>
<line x1="90" y1="554" x2="740" y2="554" stroke="#888"/>
<line x1="90" y1="554.0" x2="740" y2="554.0" stroke="#eee"/>
<text x="84" y="557.0" text-anchor="end" fill="#555">182.5 MiB</text>
<line x1="90" y1="524.0" x2="740" y2="524.0" stroke="#eee"/>
<text x="84" y="527.0" text-anchor="end" fill="#555">183.2 MiB</text>
<line x1="90" y1="494.0" x2="740" y2="494.0" stroke="#eee"/>
<text x="84" y="497.0" text-anchor="end" fill="#555">184.0 MiB</text>
<line x1="90" y1="464.0" x2="740" y2="464.0" stroke="#eee"/>
<text x="84" y="467.0" text-anchor="end" fill="#555">184.7 MiB</text>
<line x1="90" y1="434.0" x2="740" y2="434.0" stroke="#eee"/>
<text x="84" y="437.0" text-anchor="end" fill="#555">185.4 MiB</text>
<polyline fill="none" stroke="#2ca02c" stroke-width="2" points="90.0,540.1 108.1,540.1 126.1,540.2 144.2,540.2 162.2,539.7 180.3,538.9 198.3,538.1 216.4,538.0 234.4,538.2 252.5,537.8 270.6,537.8 288.6,537.6 306.7,537.6 324.7,537.6 342.8,537.6 360.8,537.6 378.9,537.5 396.9,523.4 415.0,521.6 433.1,521.4 451.1,449.8 469.2,449.9 487.2,449.1 505.3,449.0 523.3,447.8 541.4,447.8 559.4,448.0 577.5,450.4 595.6,450.4 613.6,449.7 631.7,449.7 649.7,449.7 667.8,449.6 685.8,449.6 703.9,449.6 721.9,449.5 740.0,449.5 "/>
<text x="90" y="630" fill="#d62728" font-weight="bold">hadron-cloud-trusted</text>
<line x1="90" y1="638" x2="90" y2="758" stroke="#888"/>
<line x1="90" y1="758" x2="740" y2="758" stroke="#888"/>
<line x1="90" y1="758.0" x2="740" y2="758.0" stroke="#eee"/>
<text x="84" y="761.0" text-anchor="end" fill="#555">79.8 MiB</text>
<line x1="90" y1="728.0" x2="740" y2="728.0" stroke="#eee"/>
<text x="84" y="731.0" text-anchor="end" fill="#555">80.6 MiB</text>
<line x1="90" y1="698.0" x2="740" y2="698.0" stroke="#eee"/>
<text x="84" y="701.0" text-anchor="end" fill="#555">81.5 MiB</text>
<line x1="90" y1="668.0" x2="740" y2="668.0" stroke="#eee"/>
<text x="84" y="671.0" text-anchor="end" fill="#555">82.3 MiB</text>
<line x1="90" y1="638.0" x2="740" y2="638.0" stroke="#eee"/>
<text x="84" y="641.0" text-anchor="end" fill="#555">83.2 MiB</text>
<polyline fill="none" stroke="#d62728" stroke-width="2" points="90.0,744.2 108.1,744.1 126.1,744.1 144.2,744.1 162.2,743.7 180.3,742.9 198.3,742.2 216.4,742.2 234.4,742.2 252.5,741.5 270.6,741.5 288.6,707.5 306.7,707.5 324.7,707.5 342.8,707.5 360.8,707.5 378.9,707.5 396.9,695.3 415.0,693.8 433.1,693.8 451.1,652.8 469.2,652.8 487.2,652.1 505.3,652.1 523.3,651.8 541.4,651.8 559.4,651.9 577.5,654.0 595.6,654.0 613.6,653.9 631.7,653.9 649.7,653.9 667.8,653.8 685.8,653.8 703.9,653.8 721.9,653.8 740.0,653.8 "/>
<text x="415" y="802" text-anchor="middle" fill="#555">merges over time (oldest → newest)</text>
</svg>
