<svg xmlns="http://www.w3.org/2000/svg" width="760" height="810" viewBox="0 0 760 810" font-family="sans-serif" font-size="11">
<rect width="760" height="810" fill="#ffffff"/>
<text x="90" y="18" fill="#1f77b4" font-weight="bold">hadron</text>
<line x1="90" y1="26" x2="90" y2="146" stroke="#888"/>
<line x1="90" y1="146" x2="740" y2="146" stroke="#888"/>
<line x1="90" y1="146.0" x2="740" y2="146.0" stroke="#eee"/>
<text x="84" y="149.0" text-anchor="end" fill="#555">209.5 MiB</text>
<line x1="90" y1="116.0" x2="740" y2="116.0" stroke="#eee"/>
<text x="84" y="119.0" text-anchor="end" fill="#555">210.2 MiB</text>
<line x1="90" y1="86.0" x2="740" y2="86.0" stroke="#eee"/>
<text x="84" y="89.0" text-anchor="end" fill="#555">211.0 MiB</text>
<line x1="90" y1="56.0" x2="740" y2="56.0" stroke="#eee"/>
<text x="84" y="59.0" text-anchor="end" fill="#555">211.7 MiB</text>
<line x1="90" y1="26.0" x2="740" y2="26.0" stroke="#eee"/>
<text x="84" y="29.0" text-anchor="end" fill="#555">212.4 MiB</text>
<polyline fill="none" stroke="#1f77b4" stroke-width="2" points="90.0,132.2 109.1,132.2 128.2,132.2 147.4,132.2 166.5,131.7 185.6,130.8 204.7,130.1 223.8,130.1 242.9,130.2 262.1,129.7 281.2,129.7 300.3,129.5 319.4,129.5 338.5,129.5 357.6,129.5 376.8,129.5 395.9,129.9 415.0,115.6 434.1,113.6 453.2,113.8 472.4,41.8 491.5,41.7 510.6,40.9 529.7,41.0 548.8,39.8 567.9,39.8 587.1,40.0 606.2,41.6 625.3,41.6 644.4,40.8 663.5,40.8 682.6,40.8 701.8,40.7 720.9,40.7 740.0,40.7 "/>
<text x="90" y="222" fill="#ff7f0e" font-weight="bold">hadron-cloud</text>
<line x1="90" y1="230" x2="90" y2="350" stroke="#888"/>
<line x1="90" y1="350" x2="740" y2="350" stroke="#888"/>
<line x1="90" y1="350.0" x2="740" y2="350.0" stroke="#eee"/>
<text x="84" y="353.0" text-anchor="end" fill="#555">106.8 MiB</text>
<line x1="90" y1="320.0" x2="740" y2="320.0" stroke="#eee"/>
<text x="84" y="323.0" text-anchor="end" fill="#555">107.6 MiB</text>
<line x1="90" y1="290.0" x2="740" y2="290.0" stroke="#eee"/>
<text x="84" y="293.0" text-anchor="end" fill="#555">108.5 MiB</text>
<line x1="90" y1="260.0" x2="740" y2="260.0" stroke="#eee"/>
<text x="84" y="263.0" text-anchor="end" fill="#555">109.3 MiB</text>
<line x1="90" y1="230.0" x2="740" y2="230.0" stroke="#eee"/>
<text x="84" y="233.0" text-anchor="end" fill="#555">110.1 MiB</text>
<polyline fill="none" stroke="#ff7f0e" stroke-width="2" points="90.0,336.1 109.1,336.2 128.2,336.2 147.4,336.2 166.5,335.7 185.6,334.9 204.7,334.2 223.8,334.2 242.9,334.2 262.1,333.5 281.2,333.5 300.3,299.4 319.4,299.4 338.5,299.4 357.6,299.4 376.8,299.4 395.9,299.6 415.0,287.4 434.1,285.9 453.2,285.9 472.4,244.8 491.5,244.8 510.6,244.1 529.7,244.1 548.8,243.8 567.9,243.8 587.1,243.9 606.2,245.3 625.3,245.3 644.4,245.2 663.5,245.2 682.6,245.2 701.8,245.1 720.9,245.1 740.0,245.1 "/>
<text x="90" y="426" fill="#2ca02c" font-weight="bold">hadron-trusted</text>
<line x1="90" y1="434" x2="90" y2="554" stroke="#888"/>
<line x1="90" y1="554" x2="740" y2="554" stroke="#888"/>
<line x1="90" y1="554.0" x2="740" y2="554.0" stroke="#eee"/>
<text x="84" y="557.0" text-anchor="end" fill="#555">182.5 MiB</text>
<line x1="90" y1="524.0" x2="740" y2="524.0" stroke="#eee"/>
<text x="84" y="527.0" text-anchor="end" fill="#555">183.2 MiB</text>
<line x1="90" y1="494.0" x2="740" y2="494.0" stroke="#eee"/>
<text x="84" y="497.0" text-anchor="end" fill="#555">184.0 MiB</text>
<line x1="90" y1="464.0" x2="740" y2="464.0" stroke="#eee"/>
<text x="84" y="467.0" text-anchor="end" fill="#555">184.7 MiB</text>
<line x1="90" y1="434.0" x2="740" y2="434.0" stroke="#eee"/>
<text x="84" y="437.0" text-anchor="end" fill="#555">185.4 MiB</text>
<polyline fill="none" stroke="#2ca02c" stroke-width="2" points="90.0,540.1 109.1,540.1 128.2,540.2 147.4,540.2 166.5,539.7 185.6,538.9 204.7,538.1 223.8,538.0 242.9,538.2 262.1,537.8 281.2,537.8 300.3,537.6 319.4,537.6 338.5,537.6 357.6,537.6 376.8,537.6 395.9,537.5 415.0,523.4 434.1,521.6 453.2,521.4 472.4,449.8 491.5,449.9 510.6,449.1 529.7,449.0 548.8,447.8 567.9,447.8 587.1,448.0 606.2,450.4 625.3,450.4 644.4,449.7 663.5,449.7 682.6,449.7 701.8,449.6 720.9,449.6 740.0,449.6 "/>
<text x="90" y="630" fill="#d62728" font-weight="bold">hadron-cloud-trusted</text>
<line x1="90" y1="638" x2="90" y2="758" stroke="#888"/>
<line x1="90" y1="758" x2="740" y2="758" stroke="#888"/>
<line x1="90" y1="758.0" x2="740" y2="758.0" stroke="#eee"/>
<text x="84" y="761.0" text-anchor="end" fill="#555">79.8 MiB</text>
<line x1="90" y1="728.0" x2="740" y2="728.0" stroke="#eee"/>
<text x="84" y="731.0" text-anchor="end" fill="#555">80.6 MiB</text>
<line x1="90" y1="698.0" x2="740" y2="698.0" stroke="#eee"/>
<text x="84" y="701.0" text-anchor="end" fill="#555">81.5 MiB</text>
<line x1="90" y1="668.0" x2="740" y2="668.0" stroke="#eee"/>
<text x="84" y="671.0" text-anchor="end" fill="#555">82.3 MiB</text>
<line x1="90" y1="638.0" x2="740" y2="638.0" stroke="#eee"/>
<text x="84" y="641.0" text-anchor="end" fill="#555">83.2 MiB</text>
<polyline fill="none" stroke="#d62728" stroke-width="2" points="90.0,744.2 109.1,744.1 128.2,744.1 147.4,744.1 166.5,743.7 185.6,742.9 204.7,742.2 223.8,742.2 242.9,742.2 262.1,741.5 281.2,741.5 300.3,707.5 319.4,707.5 338.5,707.5 357.6,707.5 376.8,707.5 395.9,707.5 415.0,695.3 434.1,693.8 453.2,693.8 472.4,652.8 491.5,652.8 510.6,652.1 529.7,652.1 548.8,651.8 567.9,651.8 587.1,651.9 606.2,654.0 625.3,654.0 644.4,653.9 663.5,653.9 682.6,653.9 701.8,653.8 720.9,653.8 740.0,653.8 "/>
<text x="415" y="802" text-anchor="middle" fill="#555">merges over time (oldest → newest)</text>
</svg>
